# AST/ASF file generated using VICON BodyLanguage
# -----------------------------------------------
:version 1.10
:name VICON
:units
  mass 1.0
  length 0.45
  angle deg
:documentation
   .ast/.asf automatically generated from VICON data using
   VICON BodyBuilder and BodyLanguage model FoxedUp or BRILLIANT.MOD
:root
   order TX TY TZ RX RY RZ
   axis XYZ
   position 0 0 0  
   orientation 0 0 0 
:bonedata
  begin
     id 1 
     name lhipjoint
     direction 0.543289 -0.788407 0.288535 
     length 2.57127 
     axis 0 0 0  XYZ
  end
  begin
     id 2 
     name lfemur
     direction 0.34202 -0.939693 0  
     length 8.47298  
     axis 0 0 20  XYZ
    dof rx ry rz
    limits (-160.0 20.0)
           (-70.0 70.0)
           (-60.0 70.0)
  end
  begin
     id 3 
     name ltibia
     direction 0.34202 -0.939693 0   
     length 8.13367   
     axis 0 0 20   XYZ
    dof rx
    limits (-10.0 170.0)
  end
  begin
     id 4 
     name lfoot
     direction 0.114037 -0.313314 0.942778   
     length 2.67113   
     axis -90 7.62852e-016 20   XYZ
    dof rx rz
    limits (-45.0 90.0)
           (-70.0 20.0)
  end
  begin
     id 5 
     name ltoes
     direction 1.536e-011 -4.21847e-011 1   
     length 1.32217   
     axis -90 7.62852e-016 20   XYZ
    dof rx
    limits (-90.0 20.0)
  end
  begin
     id 6 
     name rhipjoint
     direction -0.571293 -0.770752 0.282074   
     length 2.63017  
     axis 0 0 0  XYZ 
  end
  begin
     id 7 
     name rfemur
     direction -0.34202 -0.939693 0   
     length 8.60885   
     axis 0 0 -20   XYZ
    dof rx ry rz
    limits (-160.0 20.0)
           (-70.0 70.0)
           (-70.0 60.0)
  end
  begin
     id 8 
     name rtibia
     direction -0.34202 -0.939693 0   
     length 8.07673   
     axis 0 0 -20   XYZ
    dof rx
    limits (-10.0 170.0)
 end
 begin
     id 9 
     name rfoot
     direction -0.121336 -0.333368 0.934956   
     length 2.81602  
     axis -90 -7.62852e-016 -20   XYZ
    dof rx rz
    limits (-45.0 90.0)
           (-20.0 70.0)
  end
  begin
     id 10 
     name rtoes
     direction -1.53491e-011 -4.21808e-011 1   
     length 1.38905   
     axis -90 -7.62852e-016 -20   XYZ
    dof rx
    limits (-90.0 20.0)
  end
  begin
     id 11 
     name lowerback
     direction 0.0136776 0.999869 -0.00861835   
     length 2.14087   
     axis 0 0 0   XYZ
    dof rx ry rz
    limits (-20.0 45.0)
           (-30.0 30.0)
           (-30.0 30.0)
  end
  begin
     id 12 
     name upperback
     direction -0.00789158 0.999804 0.0181308   
     length 2.14151   
     axis 0 0 0   XYZ
    dof rx ry rz
    limits (-20.0 45.0)
           (-30.0 30.0)
           (-30.0 30.0)
  end
  begin
     id 13 
     name thorax
     direction -0.0135231 0.999666 0.0220247   
     length 2.13644   
     axis 0 0 0   XYZ
    dof rx ry rz
    limits (-20.0 45.0)
           (-30.0 30.0)
           (-30.0 30.0)
  end
  begin
     id 14 
     name lowerneck
     direction -0.0392259 0.997317 0.0618018   
     length 1.65045   
     axis 0 0 0   XYZ
    dof rx ry rz
    limits (-20.0 45.0)
           (-30.0 30.0)
           (-30.0 30.0)
  end
  begin
     id 15 
     name upperneck
     direction 0.0765547 0.994276 -0.0745319   
     length 1.66045   
     axis 0 0 0   XYZ
    dof rx ry rz
    limits (-20.0 45.0)
           (-30.0 30.0)
           (-30.0 30.0)
  end
  begin
     id 16
     name head
     direction 0.0241564 0.999031 -0.036785  
     length 1.66594  
     axis 0 0 0   XYZ
    dof rx ry rz
    limits (-20.0 45.0)
           (-30.0 30.0)
           (-30.0 30.0)
  end
  begin
     id 17 
     name lclavicle
     direction 0.967398 0.249018 0.0461573  
     length 3.75176  
     axis 0 0 0   XYZ
    dof ry rz
    limits (-20.0 10.0)
           (0.0 20.0)
  end
  begin
     id 18 
     name lhumerus
     direction 1 -4.48963e-011 -3.05005e-027   
     length 5.93342   
     axis 180 -30 -90   XYZ
    dof rx ry rz
    limits (-60.0 90.0)
           (-90.0 90.0)
           (-90.0 90.0)
  end
  begin
     id 19
     name lradius
     direction 1 -4.48957e-011 1.07006e-026   
     length 3.94763   
     axis 180 -30 -90   XYZ
    dof rx
    limits (-10.0 170.0)
  end
  begin
     id 20
     name lwrist
     direction 1 -4.48978e-011 1.92422e-026   
     length 1.97382   
     axis -1.18182e-014 90 90   XYZ
    dof ry
    limits (-180.0 0.0)
 end
  begin
     id 21 
     name lhand
     direction 1 -4.48931e-011 3.84844e-026   
     length 0.560187   
     axis -2.45563e-014 90 90   XYZ
    dof rx rz
    limits (-90.0 90.0)
           (-45.0 45.0)
  end
  begin
     id 22 
     name lfingers
     direction 1 -4.48952e-011 7.69687e-026   
     length 0.451637   
     axis -4.91126e-014 90 90   XYZ
    dof rx
    limits (0.0 90.0)
  end
  begin
     id 23
     name lthumb
     direction 0.707107 -6.34901e-011 0.707107   
     length 0.648463   
     axis -90 45 2.85299e-015   XYZ
    dof rx rz
    limits (-45.0 45.0)
           (-45.0 45.0)
  end
  begin
     id 24 
     name rclavicle
     direction -0.965946 0.258716 0.00371831   
     length 3.63667  
     axis 0 0 0   XYZ 
    dof ry rz
    limits (-10.0 20.0)
           (-20.0 0.0)
  end
  begin
     id 25 
     name rhumerus
     direction -1 -4.48966e-011 -1.78361e-028  
     length 6.28647   
     axis 180 30 90   XYZ
    dof rx ry rz
    limits (-90.0 60.0)
           (-90.0 90.0)
           (-90.0 90.0)
  end
  begin
     id 26 
     name rradius
     direction -1 -4.48961e-011 1.05248e-026   
     length 3.81645   
     axis 180 30 90   XYZ
    dof rx
    limits (-10.0 170.0)
  end
  begin
     id 27 
     name rwrist
     direction -1 -4.48979e-011 1.92422e-026   
     length 1.90822   
     axis -1.18182e-014 -90 -90   XYZ
    dof ry
    limits (-180.0 0.0)
  end
  begin
     id 28
     name rhand
     direction -1 -4.48937e-011 3.84844e-026   
     length 0.646185   
     axis -2.45563e-014 -90 -90   XYZ
    dof rx rz
    limits (-90.0 90.0)
           (-45.0 45.0)
  end
  begin
     id 29
     name rfingers
     direction -1 -4.48953e-011 7.69687e-026   
     length 0.520971   
     axis -4.91126e-014 -90 -90   XYZ
    dof rx
    limits (0.0 90.0)
  end
  begin
     id 30
     name rthumb
     direction -0.707107 -6.3494e-011 0.707107   
     length 0.748013   
     axis -90 -45 -2.85299e-015   XYZ
    dof rx rz
    limits (-45.0 45.0)
           (-45.0 45.0)
  end
:hierarchy
  begin
    root lhipjoint rhipjoint lowerback
    lhipjoint lfemur
    lfemur ltibia
    ltibia lfoot
    lfoot ltoes
    rhipjoint rfemur
    rfemur rtibia
    rtibia rfoot
    rfoot rtoes
    lowerback upperback
    upperback thorax
    thorax lowerneck lclavicle rclavicle
    lowerneck upperneck
    upperneck head
    lclavicle lhumerus
    lhumerus lradius
    lradius lwrist
    lwrist lhand lthumb
    lhand lfingers
    rclavicle rhumerus
    rhumerus rradius
    rradius rwrist
    rwrist rhand rthumb
    rhand rfingers
  end

#!OML:ASF H:\HAZMAT1\Patient Classification 1\Patient 3\Session 1\dancer.ASF
:FULLY-SPECIFIED
:DEGREES
30
upperback -1.497790 -10.345500 -1.504880
rfoot -20.523899 -19.523100
lradius 26.799101
lthumb 12.734000 44.603298
rradius 29.260500
lwrist -10.773800
rhand -20.632999 -20.809099
rhumerus -48.801998 8.122420 -52.183102
lowerneck -3.696570 -2.909000 -0.130813
lhand -13.372600 15.011600
ltibia 49.950199
head 3.767590 -1.705150 -2.457040
rwrist 8.728830
lfingers 7.125020
rtoes 3.412120
lowerback 0.108304 -7.768970 2.786700
rfingers 7.125020
lclavicle 0.000000 0.000000
upperneck 9.847510 -3.007690 -7.042650
rfemur -38.126598 11.144500 21.804800
thorax -2.372080 -5.223300 -2.784150
rclavicle 0.000000 0.000000
rtibia 48.386002
lfoot -18.202000 27.111700
lhumerus -34.926498 -19.674400 84.404999
rthumb 5.728720 -50.711601
root 2.016150 18.628099 -5.403750 -171.962006 40.284302 177.063004
ltoes 5.877560
lfemur -10.837000 1.127530 -13.990100
31
upperback -1.423080 -10.581900 -4.116300
rfoot -26.035101 -13.227100
lradius 30.949200
lthumb 15.478100 43.353699
rradius 23.044399
lwrist -6.572270
rhand -19.673401 -22.503599
rhumerus -63.997501 5.986840 -49.034199
lowerneck -1.629680 4.219670 3.761230
lhand -10.524900 13.953400
ltibia 33.171902
head 1.531160 3.031900 -5.060130
rwrist 17.063801
lfingers 7.125020
rtoes 6.734760
lowerback -0.221016 -7.935350 1.712940
rfingers 7.125020
lclavicle 0.000000 0.000000
upperneck 2.211120 6.238690 -15.240100
rfemur -35.956200 16.753700 19.978500
thorax -2.440820 -5.341480 -4.896900
rclavicle 0.000000 0.000000
rtibia 55.320999
lfoot -11.574100 33.885502
lhumerus -30.654301 -40.652802 82.132301
rthumb 6.655080 -52.379101
root 2.154730 18.309700 -7.865770 -181.949005 73.687103 168.662994
ltoes 14.125600
lfemur -13.612000 -19.239799 2.828320
32
upperback -0.455856 -11.715200 -5.643600
rfoot -28.532600 -14.182500
lradius 37.779900
lthumb 13.717500 45.469501
rradius 24.319700
lwrist -2.201520
rhand -16.993900 -26.389400
rhumerus -73.549202 -1.394290 -59.197201
lowerneck 1.127130 10.189600 6.580250
lhand -12.352300 15.941600
ltibia 31.299900
head -0.177334 6.940680 -6.461510
rwrist 18.491800
lfingers 7.125020
rtoes -6.566970
lowerback -0.432600 -8.803040 1.156980
rfingers 7.125020
lclavicle 0.000000 0.000000
upperneck -5.930510 13.296100 -18.316200
rfemur -39.950298 23.587799 12.966500
thorax -1.655800 -5.893520 -6.227110
rclavicle 0.000000 0.000000
rtibia 58.114201
lfoot -17.237400 21.206600
lhumerus -15.919000 -44.846298 64.543503
rthumb 9.241260 -56.166901
root 1.838290 18.087000 -9.882680 -344.170013 80.957802 7.485480
ltoes -11.457000
lfemur -5.102550 -15.608800 1.614050
33
upperback 0.692098 -13.943600 -6.965870
rfoot -27.480101 -12.882600
lradius 50.486099
lthumb 12.210400 45.464401
rradius 18.020201
lwrist 2.485380
rhand -15.680700 -27.942699
rhumerus -83.544800 -11.109100 -54.338299
lowerneck 0.447732 13.860000 8.797540
lhand -13.915700 15.840800
ltibia 22.906700
head 0.152202 9.207700 -6.036790
rwrist 24.611401
lfingers 7.125020
rtoes -6.373840
lowerback -1.242360 -10.631400 -2.297250
rfingers 7.125020
lclavicle 0.000000 -0.000000
upperneck -7.358900 18.067900 -16.746500
rfemur -43.652000 22.789900 9.210060
thorax 0.191370 -6.937260 -6.027310
rclavicle 0.000000 -0.000000
rtibia 57.199299
lfoot -35.773998 25.440901
lhumerus -9.892280 -51.040600 53.422600
rthumb 10.508200 -57.660000
root 1.537760 17.942801 -11.348100 -354.407013 70.223503 -2.632810
ltoes -0.996593
lfemur 4.587010 -14.551600 -5.312020
34
upperback 1.519480 -13.009000 -8.080280
rfoot -26.860701 -9.131150
lradius 57.210899
lthumb 15.870700 38.455002
rradius 15.875700
lwrist 0.874481
rhand -17.476999 -21.260300
rhumerus -86.247498 -10.237600 -51.967602
lowerneck -0.967904 14.139400 10.082600
lhand -10.117200 9.085420
ltibia 21.675699
head 1.575020 9.345160 -4.599340
rwrist 34.417900
lfingers 7.125020
rtoes -10.933800
lowerback -1.230910 -10.047700 -2.848540
rfingers 7.125020
lclavicle -0.000000 0.000000
upperneck -2.379600 18.793400 -12.365700
rfemur -42.954800 15.181100 9.729890
thorax 0.988538 -6.430650 -6.994180
rclavicle -0.000000 0.000000
rtibia 56.266399
lfoot -37.698200 26.122700
lhumerus -13.043200 -57.784100 51.106899
rthumb 8.775090 -51.057899
root 1.609240 17.984699 -11.661100 -356.683990 75.439499 -6.538360
ltoes 2.782830
lfemur 2.123310 -22.413200 -4.460250
35
upperback 1.876840 -5.365520 -7.040910
rfoot -28.865900 -11.811400
lradius 56.792900
lthumb 11.806800 35.587002
rradius 22.062700
lwrist -7.319610
rhand -25.634899 -12.421000
rhumerus -73.722603 4.250510 -60.564899
lowerneck -6.868430 6.836330 4.876150
lhand -14.334200 5.939790
ltibia 40.193100
head 5.362030 4.604140 0.196879
rwrist 38.434799
lfingers 7.125020
rtoes -0.859139
lowerback 0.770965 -4.193050 1.002180
rfingers 7.125020
lclavicle -0.000000 0.000000
upperneck 13.512100 8.660470 1.269500
rfemur -40.524399 7.397810 18.268200
thorax 0.732529 -2.574810 -7.870230
rclavicle -0.000000 0.000000
rtibia 58.047901
lfoot -18.388201 10.960000
lhumerus -18.326401 -46.491001 41.717499
rthumb 0.898386 -42.398899
root 2.111270 17.930000 -10.406300 -436.924988 86.036903 -88.759804
ltoes -19.810600
lfemur -16.532499 -14.704500 10.468500
36
upperback 2.495320 3.357050 -5.595930
rfoot -32.903400 -17.257299
lradius 53.170399
lthumb 10.034100 35.981701
rradius 35.688801
lwrist -10.282900
rhand -28.442600 -12.773100
rhumerus -44.175098 27.162001 -50.944901
lowerneck -7.730510 -4.807920 -1.341410
lhand -16.172199 6.240940
ltibia 47.746601
head 6.362880 -2.867970 3.154690
rwrist 30.423100
lfingers 7.125020
rtoes 5.114540
lowerback 4.125150 2.317040 3.237740
rfingers 7.125020
lclavicle 0.000000 -0.000000
upperneck 15.105800 -7.775550 11.118700
rfemur -38.961800 -0.328412 25.802401
thorax 0.797249 1.847550 -7.771930
rclavicle 0.000000 -0.000000
rtibia 58.044201
lfoot 0.842138 9.625730
lhumerus -36.197701 -28.844700 39.028198
rthumb -1.813400 -42.745098
root 2.645590 17.972700 -9.030580 -510.763000 74.292702 -164.050003
ltoes -2.715140
lfemur -52.889000 -17.807800 19.084801
37
upperback 3.258110 9.358810 -3.041350
rfoot -37.340900 -17.742500
lradius 37.785000
lthumb 8.875720 34.805401
rradius 49.871700
lwrist -12.903000
rhand -28.573099 -9.590130
rhumerus -4.612130 36.344101 -34.297798
lowerneck -4.620670 -11.119100 -5.124210
lhand -17.372700 5.012020
ltibia 34.712399
head 6.153440 -7.136870 3.750720
rwrist 23.568399
lfingers 7.125020
rtoes 5.113930
lowerback 5.272020 6.763700 5.077830
rfingers 7.125020
lclavicle 0.000000 -0.000000
upperneck 12.850500 -16.039499 13.191200
rfemur -35.744202 -7.566810 31.867201
thorax 1.778990 4.890640 -6.206660
rclavicle 0.000000 -0.000000
rtibia 59.826199
lfoot 18.872999 17.337900
lhumerus -58.111599 -15.493500 50.336102
rthumb -1.939420 -39.561100
root 3.498860 17.705400 -8.282970 -515.353027 66.137497 -166.897995
ltoes 22.262300
lfemur -71.743698 -30.123100 26.727600
38
upperback 3.385330 11.382700 -2.395150
rfoot -41.090599 -17.484400
lradius 28.230700
lthumb 12.584100 33.642899
rradius 60.881699
lwrist -18.513100
rhand -30.064501 -5.872660
rhumerus 10.633800 42.565800 -33.160400
lowerneck -1.545850 -13.972200 -6.678630
lhand -13.528100 4.041900
ltibia 36.841400
head 5.601680 -9.190560 4.017270
rwrist 25.899799
lfingers 7.125020
rtoes 4.351570
lowerback 6.097520 8.118600 8.585130
rfingers 7.125020
lclavicle -0.000000 0.000000
upperneck 10.884700 -19.719999 13.870900
rfemur -34.920898 -11.163600 33.129902
thorax 2.331540 6.001960 -7.473610
rclavicle -0.000000 0.000000
rtibia 62.358299
lfoot 10.290900 10.388700
lhumerus -65.728401 -6.776830 63.798000
rthumb -3.379760 -35.825600
root 4.220980 17.447201 -8.207040 -517.755005 62.205898 -169.602997
ltoes 1.149980
lfemur -69.163696 -29.633900 19.051399
